<svg width="280" height="80" viewBox="0 0 280 80" xmlns="http://www.w3.org/2000/svg">
  <defs>
    <linearGradient id="keyGradientH" x1="0%" y1="0%" x2="100%" y2="0%">
      <stop offset="0%" style="stop-color:#0A4D8C;stop-opacity:1" />
      <stop offset="100%" style="stop-color:#00D9A3;stop-opacity:1" />
    </linearGradient>
  </defs>
  
  <!-- La llave-κ simplificada -->
  
  <!-- κ vertical -->
  <path d="M 20,15 L 20,65" 
        stroke="url(#keyGradientH)" 
        stroke-width="6" 
        fill="none" 
        stroke-linecap="round"/>
  
  <!-- Brazos de κ -->
  <path d="M 20,30 Q 28,25 36,20" 
        stroke="url(#keyGradientH)" 
        stroke-width="5" 
        fill="none" 
        stroke-linecap="round"/>
  <path d="M 20,50 Q 28,55 36,60" 
        stroke="url(#keyGradientH)" 
        stroke-width="5" 
        fill="none" 
        stroke-linecap="round"/>
  
  <!-- Barra horizontal -->
  <path d="M 20,40 L 70,40" 
        stroke="url(#keyGradientH)" 
        stroke-width="5" 
        fill="none" 
        stroke-linecap="round"/>
  
  <!-- Círculo de transición -->
  <circle cx="70" cy="40" r="6" 
          fill="url(#keyGradientH)"/>
  
  <!-- Dientes ADN simplificados -->
  <rect x="75" y="32" width="4" height="12" fill="#0A4D8C" rx="1"/>
  <rect x="82" y="40" width="4" height="16" fill="#00D9A3" rx="1"/>
  <rect x="89" y="28" width="4" height="14" fill="#0A4D8C" rx="1"/>
  <rect x="96" y="42" width="4" height="18" fill="#00D9A3" rx="1"/>
  
  <!-- Conectores ADN -->
  <line x1="77" y1="38" x2="84" y2="48" stroke="#00D9A3" stroke-width="1.5" opacity="0.5"/>
  <line x1="84" y1="48" x2="91" y2="35" stroke="#0A4D8C" stroke-width="1.5" opacity="0.5"/>
  
  <!-- Partículas de energía -->
  <circle cx="103" cy="36" r="2" fill="#FF6B35" opacity="0.7"/>
  <circle cx="107" cy="45" r="1.5" fill="#FF6B35" opacity="0.5"/>
  
  <!-- Texto KAPPA -->
  <text x="120" y="50" 
        font-family="'Arial Black', sans-serif" 
        font-size="32" 
        font-weight="900" 
        fill="#0A4D8C">
    KAPPA
  </text>
  
  <!-- κ griego -->
  <text x="210" y="47" 
        font-family="Georgia, serif" 
        font-size="22" 
        fill="#00D9A3" 
        opacity="0.8">
    κ
  </text>
  
  <!-- Subtexto ADN -->
  <text x="120" y="65" 
        font-family="Arial, sans-serif" 
        font-size="8" 
        font-weight="600" 
        fill="#2D3748" 
        letter-spacing="1.5">
    ALTERNATIVAS DE DESARROLLO E INNOVACIÓN
  </text>
</svg>
